# xmcd
#
# Track frame offsets: 
#        150
#        12140
#        22920
#        34185
#        45665
#        58280
#        68720
#        78647
#        90597
#        103960
#
# Disc length: 1577 seconds
#
# Revision: 5
# Processed by: cddbd v1.5.2PL0 Copyright (c) Steve Scherf et al.
# Submitted via: ExactAudioCopyFreeDBPlugin 1.0
#
DISCID=7c06270a
DTITLE=Willie Nelson and Eddie Rabbitt - Singer Songwriters
DYEAR=1993
DGENRE=Country
TTITLE0=Willie Nelson - Someone Waiting For You
TTITLE1=Willie Nelson - To Make A Long Story Short, She's Gone
TTITLE2=Willie Nelson - I Never Cared For You
TTITLE3=Willie Nelson - You Left Me A Long, Long Time Ago
TTITLE4=Willie Nelson - King Of A Lonely Castle
TTITLE5=Willie Nelson - I Feel That Old Feeling
TTITLE6=Eddie Rabbitt - Holding On
TTITLE7=Eddie Rabbitt - The Bed
TTITLE8=Eddie Rabbitt - Forever Is Over
TTITLE9=Eddie Rabbitt - Always Loving You
EXTD=YEAR: 1993 ID3G:   2
EXTT0=
EXTT1=
EXTT2=
EXTT3=
EXTT4=
EXTT5=
EXTT6=
EXTT7=
EXTT8=
EXTT9=
PLAYORDER=
